Tower.Heist.2011.Cam.x264.Feel-Free

Genre: Action | Comedy | Crime
Language:English
IMDb:http://www.imdb.com/title/tt0471042/
Source:HP Thanks!

Format : MPEG-4
Format profile : Base Media
Codec ID : isom
File size : 1.13 GiB
Duration : 1h 33mn
Overall bit rate : 1 726 Kbps

Video
ID : 1
Format : AVC
Format/Info : Advanced Video Codec
Format profile : High@L5.1
Format settings, CABAC : Yes
Format settings, ReFrames : 3 frames
Codec ID : avc1
Codec ID/Info : Advanced Video Coding
Duration : 1h 33mn
Bit rate mode : Variable
Bit rate : 1 500 Kbps
Maximum bit rate : 6 122 Kbps
Width : 720 pixels
Height : 304 pixels
Display aspect ratio : 2.35:1
Frame rate mode : Constant
Frame rate : 29.970 fps
Color space : YUV
Chroma subsampling : 4:2:0
Bit depth : 8 bits
Scan type : Progressive
Bits/(Pixel*Frame) : 0.229
Stream size : 1 000 MiB (87%)
Writing library : x264


Audio
ID : 2
Format : AAC
Format/Info : Advanced Audio Codec
Format version : Version 4
Format profile : LC
Format settings, SBR : No
Codec ID : 40
Duration : 1h 33mn
Bit rate mode : Variable
Bit rate : 224 Kbps
Maximum bit rate : 266 Kbps
Channel(s) : 2 channels
Channel positions : Front: L R
Sampling rate : 48.0 KHz
Stream size : 150 MiB (13%)


Plot:
When a group of hard working guys find out they've fallen victim to a wealthy business man's Ponzi scheme, they conspire to rob his high-rise residence.


Poster:

 
http://i.imgur.com/4jaPY.png


Screens:

 
http://i.imgur.com/2eVee.png
 
http://i.imgur.com/IAqpc.png
 
http://i.imgur.com/5NLyz.png


ENJOY!